<?xml version="1.0" standalone="no"?>
<!DOCTYPE svg PUBLIC "-//W3C//DTD SVG 20010904//EN"
 "http://www.w3.org/TR/2001/REC-SVG-20010904/DTD/svg10.dtd">
<svg version="1.0" xmlns="http://www.w3.org/2000/svg"
 width="1200.000000pt" height="1200.000000pt" viewBox="0 0 1200.000000 1200.000000"
 preserveAspectRatio="xMidYMid meet">

<g transform="translate(0.000000,1200.000000) scale(0.100000,-0.100000)"
fill="#000000" stroke="none">
<path d="M0 6000 l0 -6000 6000 0 6000 0 0 6000 0 6000 -6000 0 -6000 0 0
-6000z m9350 4477 c296 -71 525 -194 721 -387 209 -206 334 -435 401 -731 l23
-104 0 -2805 c0 -2670 -1 -2809 -18 -2890 -72 -336 -243 -624 -495 -833 -42
-35 -94 -75 -114 -89 -21 -14 -60 -56 -87 -94 -89 -126 -260 -292 -367 -356
-17 -10 -52 -50 -79 -90 -67 -99 -252 -280 -355 -349 -121 -80 -248 -142 -380
-183 -227 -71 -10 -66 -3042 -66 -1864 0 -2761 3 -2815 11 -238 32 -471 126
-673 272 -89 64 -261 245 -322 337 -106 161 -182 339 -225 530 -16 69 -17 282
-20 2850 -4 3033 -7 2870 53 3078 36 127 139 329 227 448 83 111 219 245 319
313 44 31 78 65 109 110 57 85 255 284 339 341 46 31 79 64 110 109 56 82 233
261 323 328 178 130 446 237 658 262 40 5 1325 8 2854 7 2632 -2 2784 -3 2855
-19z"/>
<path d="M3667 10339 c-179 -23 -349 -83 -504 -178 -87 -52 -238 -169 -230
-178 2 -2 23 4 46 12 23 8 82 23 129 32 82 17 249 18 2892 18 2712 0 2808 -1
2895 -19 290 -61 540 -197 745 -405 195 -198 320 -431 382 -714 l23 -102 0
-2810 0 -2810 -27 -110 c-14 -60 -29 -119 -33 -130 -4 -11 12 2 36 29 153 172
260 385 306 613 17 83 18 238 18 2858 0 3035 4 2823 -61 3023 -132 404 -449
710 -864 834 -166 49 -85 48 -2980 47 -1489 -1 -2736 -5 -2773 -10z"/>
<path d="M3260 9894 c-14 -2 -59 -9 -100 -15 -101 -15 -247 -62 -351 -115 -84
-42 -86 -44 -123 -114 l-38 -72 68 9 c38 4 1322 8 2854 8 2651 0 2789 -1 2870
-18 580 -124 999 -536 1132 -1115 l22 -97 4 -2755 c2 -2014 0 -2780 -8 -2848
-7 -52 -9 -96 -7 -99 3 -2 35 10 72 29 65 32 69 36 107 112 48 95 100 252 119
356 12 62 14 545 14 2840 0 3029 4 2818 -61 3018 -141 432 -479 738 -944 855
l-85 21 -2760 2 c-1518 1 -2771 0 -2785 -2z"/>
<path d="M2785 9440 c-38 -4 -96 -13 -128 -20 -69 -14 -69 -15 -91 -163 -14
-93 -16 -415 -16 -2798 0 -1668 4 -2726 10 -2778 33 -291 159 -550 370 -761
179 -179 430 -309 682 -352 58 -10 658 -13 2853 -13 2603 0 2785 1 2854 17 41
10 78 21 82 25 4 5 16 42 25 83 17 71 19 218 22 2785 2 1858 0 2745 -8 2822
-53 565 -441 1003 -1005 1136 l-90 21 -2745 2 c-1510 1 -2776 -2 -2815 -6z
m3103 -1515 c28 -9 52 -19 52 -24 0 -4 -10 -16 -21 -27 -38 -34 -100 -124
-132 -192 -25 -54 -32 -83 -35 -153 -4 -77 -1 -93 21 -142 29 -64 97 -136 156
-167 l41 -20 0 30 c0 47 41 118 115 198 37 40 69 71 71 69 6 -6 12 -51 13 -92
1 -39 2 -41 44 -52 24 -7 67 -28 96 -47 29 -20 56 -36 60 -36 3 0 28 16 55 35
27 19 52 33 54 30 9 -8 -20 -159 -40 -210 -10 -27 -32 -67 -49 -87 l-29 -37
58 -22 c88 -33 190 -32 264 4 107 52 196 183 235 346 9 39 22 71 28 71 20 0
114 -91 170 -165 162 -216 245 -478 232 -734 -6 -115 -30 -239 -63 -321 l-17
-43 -28 55 c-73 144 -248 222 -421 188 -71 -14 -131 -41 -169 -77 l-27 -25
-46 36 c-59 45 -111 60 -206 60 -64 0 -85 -5 -142 -32 -75 -37 -136 -98 -165
-167 -10 -25 -20 -45 -23 -45 -3 0 -14 17 -25 37 -30 55 -66 77 -125 76 -66
-1 -148 -50 -209 -124 l-44 -54 8 40 c25 136 23 190 -9 240 -24 37 -92 67
-163 73 -35 2 -63 7 -63 9 0 3 15 23 34 44 62 72 79 209 38 302 -41 93 -142
167 -228 167 -21 0 -25 3 -18 18 4 9 9 50 12 90 3 59 0 85 -18 135 -67 185
-223 285 -401 256 -34 -5 -70 -14 -81 -20 -26 -14 -23 -3 19 55 94 132 192
224 332 310 129 79 293 136 449 156 95 12 277 4 340 -15z m-1763 -2998 c87
-39 125 -99 125 -196 0 -90 -25 -139 -94 -182 l-29 -17 51 -26 c74 -38 96 -74
100 -167 6 -114 -30 -174 -133 -221 -46 -21 -67 -23 -247 -26 l-198 -4 0 432
0 432 193 -4 c156 -3 200 -7 232 -21z m739 6 c3 -10 62 -199 131 -421 69 -222
125 -408 125 -413 0 -5 -31 -9 -70 -9 l-69 0 -26 88 c-15 48 -29 95 -31 105
-5 15 -21 17 -147 17 l-143 0 -28 -105 -29 -105 -75 0 c-60 0 -73 3 -69 14 3
8 63 198 133 423 70 224 129 411 131 416 2 4 40 7 83 7 66 0 79 -3 84 -17z
m1016 -138 l0 -155 -60 0 -60 0 0 95 0 95 -55 0 -55 0 0 -310 0 -310 65 0 65
0 0 -60 0 -60 -205 0 -205 0 0 60 0 60 70 0 70 0 0 310 0 310 -60 0 -60 0 0
-95 0 -95 -60 0 -60 0 0 155 0 155 305 0 305 0 0 -155z m1600 0 l0 -155 -60 0
-60 0 0 95 0 95 -55 0 -55 0 0 -310 0 -310 65 0 65 0 0 -60 0 -60 -205 0 -205
0 0 60 0 60 70 0 70 0 0 310 0 310 -60 0 -60 0 0 -95 0 -95 -60 0 -60 0 0 155
0 155 305 0 305 0 0 -155z m395 -179 c55 -184 102 -333 103 -331 2 2 48 151
102 332 l97 328 73 3 c66 3 72 1 68 -15 -3 -10 -63 -204 -134 -431 l-128 -413
-80 3 -79 3 -127 405 c-69 223 -130 415 -134 428 -7 21 -6 22 66 22 l73 0 100
-334z"/>
<path d="M3840 4710 l0 -120 85 0 c137 0 191 34 189 121 -1 87 -53 119 -196
119 l-78 0 0 -120z"/>
<path d="M3840 4341 l0 -131 88 0 c104 0 156 13 187 46 50 54 37 152 -25 188
-28 17 -57 22 -142 25 l-108 3 0 -131z"/>
<path d="M4723 4590 l-50 -170 104 0 103 0 -6 25 c-14 57 -91 305 -96 310 -2
3 -27 -72 -55 -165z"/>
<path d="M2340 9305 c-64 -32 -67 -36 -107 -117 -50 -101 -86 -205 -110 -318
-17 -81 -18 -214 -18 -2865 0 -2601 1 -2785 17 -2865 69 -336 256 -624 523
-806 156 -107 309 -172 490 -210 87 -18 184 -19 2865 -19 2681 0 2778 1 2865
19 115 24 240 68 335 117 72 37 77 42 108 105 18 37 31 68 29 70 -2 3 -46 0
-98 -6 -65 -8 -933 -10 -2854 -8 l-2760 3 -97 23 c-281 64 -504 189 -708 392
-208 208 -335 444 -396 735 -18 87 -19 187 -19 2870 0 1529 4 2810 8 2848 4
37 4 67 0 67 -4 -1 -37 -16 -73 -35z"/>
<path d="M1953 9000 c-163 -198 -262 -423 -293 -663 -7 -57 -10 -930 -7 -2832
3 -2543 4 -2756 20 -2825 73 -323 245 -593 492 -776 142 -105 293 -174 485
-222 l105 -27 2745 -3 c3047 -3 2852 -7 3066 63 174 57 372 173 467 273 l29
30 -68 -19 c-186 -52 -64 -50 -3054 -46 l-2775 3 -86 21 c-395 98 -703 315
-911 639 -79 123 -151 301 -191 469 l-21 90 -4 2775 c-3 2992 -5 2871 47 3053
11 37 18 67 15 67 -2 0 -30 -32 -61 -70z"/>
</g>
</svg>
