<?xml version="1.0" standalone="no"?>
<!DOCTYPE svg PUBLIC "-//W3C//DTD SVG 20010904//EN"
 "http://www.w3.org/TR/2001/REC-SVG-20010904/DTD/svg10.dtd">
<svg version="1.0" xmlns="http://www.w3.org/2000/svg"
 width="236.000000pt" height="236.000000pt" viewBox="0 0 236.000000 236.000000"
 preserveAspectRatio="xMidYMid meet">

<g transform="translate(0.000000,236.000000) scale(0.100000,-0.100000)"
fill="#000000" stroke="none">
<path d="M0 1180 l0 -1180 1180 0 1180 0 0 1180 0 1180 -1180 0 -1180 0 0
-1180z m2115 322 c-6 -4 -36 -16 -69 -27 -125 -41 -235 -142 -249 -230 -4 -22
0 -54 7 -76 l14 -39 -37 7 c-63 13 -242 7 -308 -10 -146 -38 -249 -128 -283
-247 -7 -23 -8 -24 -15 -5 -51 138 -134 211 -286 250 -49 13 -96 16 -204 13
l-141 -3 13 39 c39 112 -66 235 -257 303 l-65 23 328 0 c238 0 327 -3 327 -11
0 -7 10 -31 22 -56 24 -48 52 -61 144 -65 l49 -3 8 58 c10 63 21 73 31 27 5
-25 10 -30 36 -30 26 0 31 5 36 30 9 44 21 37 29 -18 10 -74 11 -75 94 -61 82
14 105 31 123 91 l11 38 251 2 c138 2 285 4 326 6 41 2 70 -1 65 -6z"/>
</g>
</svg>
