<?xml version="1.0" standalone="no"?>
<!DOCTYPE svg PUBLIC "-//W3C//DTD SVG 20010904//EN"
 "http://www.w3.org/TR/2001/REC-SVG-20010904/DTD/svg10.dtd">
<svg version="1.0" xmlns="http://www.w3.org/2000/svg"
 width="500.000000pt" height="235.000000pt" viewBox="0 0 500.000000 235.000000"
 preserveAspectRatio="xMidYMid meet">

<g transform="translate(0.000000,235.000000) scale(0.100000,-0.100000)"
fill="#000000" stroke="none">
<path d="M0 1175 l0 -1175 2500 0 2500 0 0 1175 0 1175 -2500 0 -2500 0 0
-1175z m1540 699 c32 -91 50 -129 65 -135 19 -8 607 -145 650 -151 17 -3 22
11 47 117 16 66 31 127 34 135 4 9 22 -17 49 -71 39 -76 48 -87 75 -91 74 -11
86 -2 131 90 28 59 44 81 49 71 4 -8 20 -69 35 -136 26 -113 30 -122 49 -117
12 2 165 38 340 79 176 41 323 80 327 87 4 7 26 65 49 130 23 65 44 118 46
118 18 0 161 -62 254 -111 377 -198 690 -502 850 -824 33 -66 66 -149 74 -184
l15 -64 -92 92 c-190 188 -346 271 -512 271 -60 0 -82 -5 -132 -30 -34 -17
-73 -46 -87 -65 -34 -45 -76 -134 -76 -162 0 -13 -2 -23 -5 -23 -2 0 -26 14
-52 30 -158 100 -477 114 -717 30 -201 -69 -370 -236 -455 -450 -16 -41 -36
-108 -44 -148 -17 -81 -27 -102 -27 -56 0 45 -37 169 -75 252 -109 236 -302
386 -564 439 -115 23 -336 20 -433 -5 -76 -21 -171 -63 -183 -82 -12 -19 -23
-10 -30 22 -21 93 -85 182 -159 220 -27 14 -67 23 -118 26 -162 10 -341 -81
-525 -264 -51 -51 -93 -90 -93 -87 0 24 37 137 64 196 168 368 568 739 1001
929 61 26 115 48 120 48 6 0 31 -57 55 -126z"/>
</g>
</svg>
