<?xml version="1.0" standalone="no"?>
<!DOCTYPE svg PUBLIC "-//W3C//DTD SVG 20010904//EN"
 "http://www.w3.org/TR/2001/REC-SVG-20010904/DTD/svg10.dtd">
<svg version="1.0" xmlns="http://www.w3.org/2000/svg"
 width="2000.000000pt" height="2000.000000pt" viewBox="0 0 2000.000000 2000.000000"
 preserveAspectRatio="xMidYMid meet">

<g transform="translate(0.000000,2000.000000) scale(0.100000,-0.100000)"
fill="#000000" stroke="none">
<path d="M9610 18305 l0 -1465 390 0 390 0 0 1465 0 1465 -390 0 -390 0 0
-1465z"/>
<path d="M8980 19714 c-194 -21 -190 -19 -189 -57 0 -53 94 -926 100 -931 6
-6 371 33 378 40 3 3 -17 220 -45 482 l-49 477 -35 1 c-19 1 -91 -4 -160 -12z"/>
<path d="M10826 19719 c-8 -26 -100 -948 -95 -953 9 -10 374 -45 379 -36 9 14
104 950 97 956 -6 6 -139 23 -304 39 -57 6 -74 4 -77 -6z"/>
<path d="M7958 19552 c-91 -21 -169 -40 -172 -43 -6 -5 189 -938 198 -946 6
-6 359 68 369 77 7 6 -166 855 -189 933 -7 22 -9 22 -206 -21z"/>
<path d="M11836 19573 c-17 -57 -196 -920 -192 -929 2 -6 23 -14 46 -18 39 -6
41 -8 36 -34 -30 -141 -577 -2630 -581 -2639 -3 -9 -24 -11 -77 -7 -40 3 -116
1 -168 -5 -266 -30 -492 -133 -681 -309 -117 -110 -178 -192 -250 -337 -200
-405 -157 -863 115 -1226 136 -180 288 -292 538 -397 18 -7 25 -16 22 -29 -2
-10 -155 -692 -339 -1517 -183 -824 -336 -1500 -338 -1502 -3 -3 -1020 693
-2262 1546 l-2257 1552 -337 -62 c-185 -34 -337 -63 -339 -65 -2 -1 25 -155
60 -341 l63 -337 2165 -1488 c1191 -819 2165 -1493 2165 -1498 0 -6 -367 -276
-815 -602 -448 -325 -823 -599 -832 -608 -16 -15 -3 -35 208 -326 124 -170
227 -312 229 -313 2 -2 373 265 825 593 452 328 823 595 824 593 2 -1 -102
-473 -230 -1048 -128 -574 -232 -1045 -231 -1045 20 -11 371 -74 376 -68 4 4
110 517 235 1138 125 622 229 1131 229 1131 1 1 292 -198 646 -441 l644 -444
275 401 c233 339 273 402 261 413 -8 8 -257 181 -554 385 -297 204 -541 374
-543 379 -2 7 5426 3957 5453 3967 8 3 85 -121 205 -329 l193 -335 176 102
c97 56 550 318 1006 581 457 263 834 481 838 485 6 5 -342 627 -379 678 -2 3
-1449 -829 -1934 -1111 -19 -11 -30 -16 -25 -10 6 5 240 177 522 382 464 337
513 375 518 404 3 17 13 79 23 137 l17 105 300 218 c165 120 306 224 313 231
12 11 -5 39 -99 169 l-113 156 -30 -22 c-17 -12 -146 -105 -286 -207 -140
-102 -269 -195 -286 -208 l-32 -22 -135 22 -136 21 -98 -71 c-54 -39 -1531
-1112 -3283 -2385 -1752 -1273 -3186 -2314 -3186 -2313 -1 0 130 651 290 1446
l292 1445 155 6 c164 6 234 19 368 68 560 204 877 805 730 1384 -23 91 -77
225 -122 302 -126 216 -348 409 -571 495 -74 29 -85 36 -81 54 11 46 545 2650
545 2657 0 4 21 2 46 -3 25 -6 47 -8 50 -5 10 10 203 942 196 948 -6 5 -346
80 -364 79 -4 0 -9 -8 -12 -17z m-629 -4243 c167 -58 313 -207 364 -369 29
-91 35 -227 15 -313 -40 -172 -163 -325 -318 -397 -175 -82 -335 -82 -508 1
-200 96 -329 301 -330 524 0 266 177 495 440 569 80 22 255 14 337 -15z"/>
<path d="M6986 19290 c-98 -32 -180 -61 -183 -63 -5 -6 285 -908 296 -919 3
-4 87 19 186 52 153 50 179 61 177 77 -4 20 -291 905 -295 909 -1 2 -83 -24
-181 -56z"/>
<path d="M12816 19302 c-8 -26 -73 -227 -145 -447 -71 -220 -131 -408 -133
-418 -2 -16 25 -27 177 -77 99 -33 183 -56 186 -52 6 6 299 903 299 915 0 4
-242 87 -357 122 -7 2 -18 -16 -27 -43z"/>
<path d="M6025 18921 c-118 -54 -169 -82 -167 -92 3 -11 380 -864 387 -877 2
-2 345 148 354 155 6 4 -391 893 -398 892 -3 0 -82 -35 -176 -78z"/>
<path d="M13595 18555 c-109 -245 -197 -446 -194 -448 9 -7 352 -157 354 -155
7 13 384 866 387 877 2 10 -49 38 -167 92 -93 43 -173 78 -176 78 -3 1 -95
-199 -204 -444z"/>
<path d="M5120 18460 c-179 -104 -329 -191 -334 -193 -4 -1 256 -460 578
-1019 l587 -1016 338 196 338 195 -121 211 c-67 116 -331 572 -586 1014 -254
441 -466 802 -469 801 -3 0 -152 -85 -331 -189z"/>
<path d="M14082 17853 c-253 -439 -516 -895 -585 -1014 l-124 -216 338 -195
338 -196 586 1015 c322 558 585 1016 583 1017 -10 8 -668 386 -671 386 -2 0
-211 -359 -465 -797z"/>
<path d="M4255 17899 c-82 -60 -149 -112 -149 -115 3 -10 566 -784 571 -784 2
0 74 50 158 112 110 79 152 115 146 125 -26 46 -558 772 -566 772 -5 0 -77
-49 -160 -110z"/>
<path d="M15301 17630 c-151 -209 -278 -386 -282 -393 -6 -10 37 -46 147 -126
130 -94 158 -111 168 -100 7 8 127 172 266 364 139 193 264 364 276 381 l23
30 -154 112 c-84 62 -157 112 -162 111 -4 0 -132 -171 -282 -379z"/>
<path d="M3461 17254 l-140 -126 42 -48 c23 -26 170 -190 326 -363 l285 -316
79 72 c44 40 108 97 143 127 34 30 63 58 63 61 1 9 -640 719 -650 719 -4 0
-71 -57 -148 -126z"/>
<path d="M16061 17023 c-177 -196 -321 -359 -320 -362 0 -3 29 -31 63 -61 35
-30 99 -87 143 -127 l79 -72 285 316 c156 173 303 337 326 363 l42 48 -140
126 c-77 69 -144 126 -148 126 -5 0 -154 -161 -330 -357z"/>
<path d="M2746 16539 c-69 -77 -126 -143 -126 -148 0 -9 710 -651 719 -650 3
0 31 29 61 63 30 35 87 99 127 143 l72 80 -326 294 c-180 162 -343 309 -363
326 l-38 33 -126 -141z"/>
<path d="M16768 16357 c-197 -177 -358 -326 -357 -332 1 -11 240 -283 250
-284 9 -1 719 641 719 650 0 6 -249 289 -254 289 -1 0 -162 -145 -358 -323z"/>
<path d="M2101 15743 c-109 -150 -112 -156 -94 -173 47 -45 767 -560 773 -553
17 19 220 302 220 306 0 3 -172 130 -382 283 -211 152 -388 281 -393 285 -7 5
-55 -53 -124 -148z"/>
<path d="M1545 14889 c-104 -182 -190 -335 -190 -340 0 -5 356 -214 790 -465
435 -251 890 -513 1011 -584 l221 -127 196 338 c107 187 192 341 189 343 -511
296 -2022 1166 -2024 1166 -2 -1 -88 -150 -193 -331z"/>
<path d="M1151 14132 c-7 -14 -132 -291 -147 -328 -4 -10 883 -412 890 -403 7
10 156 352 154 354 -3 2 -762 340 -845 376 -40 17 -43 17 -52 1z"/>
<path d="M18400 13954 c-239 -106 -439 -195 -443 -196 -6 -3 134 -336 149
-357 3 -3 894 389 894 394 0 6 -153 342 -158 347 -4 3 -203 -81 -442 -188z"/>
<path d="M712 13018 c-33 -101 -58 -184 -58 -185 3 -3 893 -292 911 -295 13
-2 29 36 75 177 33 99 56 183 52 187 -7 7 -899 298 -913 298 -5 0 -35 -82 -67
-182z"/>
<path d="M18760 13054 c-245 -80 -448 -149 -452 -152 -4 -4 19 -88 52 -187 46
-141 62 -179 75 -177 18 3 908 292 911 295 0 1 -25 84 -58 185 -34 107 -64
182 -71 181 -7 0 -212 -66 -457 -145z"/>
<path d="M485 12208 c-13 -41 -75 -361 -71 -365 8 -9 930 -203 941 -199 11 4
90 364 82 373 -5 4 -920 202 -940 203 -4 0 -9 -6 -12 -12z"/>
<path d="M19027 12120 c-252 -54 -461 -100 -464 -103 -8 -9 71 -369 82 -373
11 -4 933 190 941 199 3 2 -12 87 -34 188 -27 129 -43 185 -53 186 -8 1 -220
-43 -472 -97z"/>
<path d="M306 11178 c-16 -95 -37 -341 -29 -347 10 -9 950 -107 957 -100 11
10 45 374 36 379 -10 6 -896 101 -937 100 -17 0 -23 -7 -27 -32z"/>
<path d="M19163 11161 c-237 -25 -434 -48 -437 -51 -6 -6 32 -371 39 -379 7
-7 948 91 958 100 8 6 -13 252 -29 347 -5 31 -6 32 -52 31 -26 -1 -241 -22
-479 -48z"/>
<path d="M230 10000 l0 -390 1465 0 1465 0 0 390 0 390 -1465 0 -1465 0 0
-390z"/>
<path d="M16840 10000 l0 -390 1465 0 1465 0 0 390 0 390 -1465 0 -1465 0 0
-390z"/>
<path d="M705 9221 c-349 -37 -430 -49 -433 -61 -4 -22 34 -360 41 -367 7 -6
943 89 957 97 5 3 0 86 -10 185 -11 99 -20 183 -20 188 0 13 -99 5 -535 -42z"/>
<path d="M18760 9263 c0 -5 -9 -89 -20 -188 -10 -98 -15 -182 -11 -185 15 -8
951 -103 958 -97 10 11 45 369 36 377 -8 7 -880 101 -935 100 -16 0 -28 -3
-28 -7z"/>
<path d="M873 8261 c-249 -53 -455 -100 -458 -103 -7 -6 65 -358 75 -370 5 -7
938 186 948 196 2 3 -13 87 -35 188 -34 159 -41 183 -58 185 -11 1 -223 -42
-472 -96z"/>
<path d="M18635 8348 c-11 -34 -77 -360 -73 -364 10 -10 943 -203 948 -196 10
12 82 364 75 370 -6 6 -909 201 -933 202 -7 0 -15 -6 -17 -12z"/>
<path d="M1375 7404 c-110 -36 -318 -103 -461 -150 l-262 -84 58 -181 c32 -99
60 -183 63 -185 5 -6 907 284 919 295 6 5 -101 353 -112 365 -3 2 -95 -25
-205 -60z"/>
<path d="M18415 7457 c-46 -130 -112 -353 -107 -358 12 -11 914 -301 919 -295
3 2 31 86 63 185 l57 180 -106 35 c-58 19 -261 85 -451 146 -190 61 -351 113
-358 115 -7 3 -15 -1 -17 -8z"/>
<path d="M2368 6046 c-554 -320 -1009 -584 -1013 -587 -4 -5 341 -618 381
-677 1 -2 458 261 1017 584 l1016 586 -48 81 c-27 45 -110 190 -186 322 -76
132 -143 247 -149 256 -10 14 -144 -61 -1018 -565z"/>
<path d="M16533 6472 c-50 -86 -138 -239 -196 -339 l-105 -182 1015 -586 c559
-322 1016 -585 1017 -583 49 72 384 673 379 678 -4 4 -447 261 -983 570 -536
309 -989 571 -1006 581 l-31 19 -90 -158z"/>
<path d="M1441 6404 c-239 -107 -436 -196 -438 -197 -7 -8 155 -352 165 -350
10 2 870 382 880 388 6 5 -154 354 -163 354 -5 0 -205 -88 -444 -195z"/>
<path d="M18027 6423 c-42 -97 -76 -177 -75 -178 10 -6 870 -386 880 -388 10
-2 172 342 164 350 -5 6 -878 393 -884 393 -4 0 -42 -80 -85 -177z"/>
<path d="M2378 4707 c-213 -155 -387 -285 -388 -290 0 -7 215 -306 223 -310 6
-3 787 564 787 570 0 9 -223 313 -229 312 -3 0 -180 -128 -393 -282z"/>
<path d="M17112 4836 c-62 -84 -112 -156 -112 -159 0 -6 781 -573 787 -570 8
4 223 303 223 310 -1 7 -760 562 -780 571 -3 1 -57 -67 -118 -152z"/>
<path d="M2976 3940 c-196 -177 -356 -325 -356 -330 0 -4 57 -71 127 -149
l127 -141 35 33 c20 19 173 157 341 307 168 150 315 282 327 294 l22 21 -126
140 c-70 77 -129 141 -133 143 -4 1 -168 -142 -364 -318z"/>
<path d="M16532 4120 c-68 -76 -123 -142 -122 -147 0 -4 128 -122 283 -262
155 -139 316 -284 358 -322 l76 -69 127 142 c69 77 126 144 126 148 0 10 -709
650 -718 650 -4 -1 -63 -63 -130 -140z"/>
<path d="M5947 3762 c-3 -4 -266 -461 -586 -1015 -321 -555 -581 -1010 -579
-1011 64 -44 673 -384 678 -379 4 4 213 366 465 803 252 437 514 890 581 1007
l122 212 -121 69 c-67 38 -220 126 -339 195 -120 69 -219 123 -221 119z"/>
<path d="M13712 3575 c-183 -106 -333 -197 -333 -202 1 -8 1148 -2001 1161
-2016 4 -5 619 338 678 379 4 2 -1156 2015 -1167 2025 -3 3 -156 -81 -339
-186z"/>
<path d="M3684 3278 c-159 -176 -306 -340 -326 -363 l-37 -42 141 -127 c77
-69 144 -126 148 -126 10 0 651 712 648 720 -2 3 -52 50 -113 105 -60 54 -124
111 -141 127 l-30 28 -290 -322z"/>
<path d="M15885 3473 c-77 -70 -141 -129 -143 -133 -3 -8 638 -720 648 -720 4
0 71 57 149 127 l141 127 -28 31 c-16 16 -152 167 -302 335 -150 168 -285 317
-299 332 l-26 27 -140 -126z"/>
<path d="M9610 1695 l0 -1465 390 0 390 0 0 1465 0 1465 -390 0 -390 0 0
-1465z"/>
<path d="M4410 2638 c-145 -200 -274 -376 -286 -393 l-22 -30 151 -110 c83
-60 156 -111 161 -112 9 -2 536 715 568 772 6 9 -38 46 -142 122 -83 59 -154
109 -159 111 -4 1 -126 -161 -271 -360z"/>
<path d="M15163 2889 c-106 -77 -151 -115 -145 -124 32 -57 559 -774 568 -772
5 1 78 52 161 112 l151 110 -22 30 c-12 17 -141 193 -285 393 -145 199 -266
362 -270 362 -3 0 -75 -50 -158 -111z"/>
<path d="M6053 1617 c-105 -237 -193 -438 -195 -446 -2 -9 56 -40 171 -92 96
-44 175 -79 176 -79 5 0 397 891 394 894 -5 4 -348 156 -352 156 -1 0 -88
-195 -194 -433z"/>
<path d="M13580 1975 c-91 -41 -169 -76 -174 -78 -8 -2 381 -897 389 -897 12
0 347 158 348 164 2 11 -387 886 -393 885 -3 0 -79 -33 -170 -74z"/>
<path d="M7097 1693 c-12 -20 -298 -915 -294 -919 6 -7 367 -123 367 -118 0 1
65 202 144 446 79 244 146 452 148 462 3 17 -18 27 -162 73 -91 29 -172 55
-182 58 -9 3 -18 2 -21 -2z"/>
<path d="M12710 1641 c-153 -50 -175 -60 -172 -77 2 -10 69 -218 148 -462 79
-243 144 -444 144 -446 0 -4 360 111 367 118 7 7 -291 919 -302 922 -6 1 -89
-24 -185 -55z"/>
<path d="M7971 1393 c-58 -250 -189 -898 -184 -903 12 -10 365 -82 371 -76 8
9 203 930 198 941 -3 9 -330 85 -363 85 -6 0 -16 -21 -22 -47z"/>
<path d="M11811 1401 c-90 -20 -166 -41 -168 -46 -4 -12 191 -932 199 -941 6
-6 359 66 371 76 5 5 -126 653 -184 903 -13 57 0 56 -218 8z"/>
<path d="M8887 1263 c-11 -36 -100 -943 -94 -949 10 -11 369 -46 377 -37 9 11
106 951 98 958 -3 3 -68 12 -144 20 -77 8 -160 17 -186 20 -39 5 -47 3 -51
-12z"/>
<path d="M10907 1260 c-93 -10 -171 -21 -175 -25 -8 -7 88 -947 98 -958 8 -9
367 26 377 37 6 5 -81 892 -92 944 -3 13 -12 22 -23 21 -9 -1 -93 -9 -185 -19z"/>
</g>
</svg>
